<mxfile host="app.diagrams.net" modified="2023-01-08T20:49:39.682Z" agent="5.0 (Windows NT 10.0; Win64; x64) AppleWebKit/537.36 (KHTML, like Gecko) Chrome/108.0.0.0 Safari/537.36 Edg/108.0.1462.76" etag="w2UqsU_nwNihN1FX475e" version="20.8.3" type="github">
  <diagram id="Zo5lMadavMAMMS1Vv8Pm" name="Page-1">
    <mxGraphModel dx="880" dy="1613" grid="1" gridSize="10" guides="1" tooltips="1" connect="1" arrows="1" fold="1" page="1" pageScale="1" pageWidth="827" pageHeight="1169" math="0" shadow="0">
      <root>
        <mxCell id="0" />
        <mxCell id="1" parent="0" />
        <mxCell id="WmKhJzYeK24KwL5hWNiz-5" value="" style="edgeStyle=orthogonalEdgeStyle;rounded=0;orthogonalLoop=1;jettySize=auto;html=1;" parent="1" source="WmKhJzYeK24KwL5hWNiz-1" target="WmKhJzYeK24KwL5hWNiz-4" edge="1">
          <mxGeometry relative="1" as="geometry" />
        </mxCell>
        <mxCell id="WmKhJzYeK24KwL5hWNiz-1" value="INICIO" style="strokeWidth=2;html=1;shape=mxgraph.flowchart.start_1;whiteSpace=wrap;" parent="1" vertex="1">
          <mxGeometry x="364" width="100" height="60" as="geometry" />
        </mxCell>
        <mxCell id="WmKhJzYeK24KwL5hWNiz-7" value="" style="edgeStyle=orthogonalEdgeStyle;rounded=0;orthogonalLoop=1;jettySize=auto;html=1;" parent="1" source="WmKhJzYeK24KwL5hWNiz-4" target="WmKhJzYeK24KwL5hWNiz-6" edge="1">
          <mxGeometry relative="1" as="geometry" />
        </mxCell>
        <mxCell id="WmKhJzYeK24KwL5hWNiz-4" value="b, h" style="html=1;strokeWidth=2;shape=manualInput;whiteSpace=wrap;rounded=1;size=26;arcSize=11;" parent="1" vertex="1">
          <mxGeometry x="364" y="100" width="100" height="60" as="geometry" />
        </mxCell>
        <mxCell id="WmKhJzYeK24KwL5hWNiz-6" value="" style="whiteSpace=wrap;html=1;strokeWidth=2;rounded=1;arcSize=11;" parent="1" vertex="1">
          <mxGeometry x="355" y="241" width="120" height="60" as="geometry" />
        </mxCell>
      </root>
    </mxGraphModel>
  </diagram>
</mxfile>
